<?xml version="1.0" standalone="no"?>
<!DOCTYPE svg PUBLIC "-//W3C//DTD SVG 20010904//EN"
 "http://www.w3.org/TR/2001/REC-SVG-20010904/DTD/svg10.dtd">
<svg version="1.0" xmlns="http://www.w3.org/2000/svg"
 width="256.000000pt" height="256.000000pt" viewBox="0 0 256.000000 256.000000"
 preserveAspectRatio="xMidYMid meet">

<g transform="translate(0.000000,256.000000) scale(0.100000,-0.100000)"
fill="#000000" stroke="none">
<path d="M352 2501 c-64 -22 -153 -82 -193 -130 -17 -20 -44 -65 -62 -101
l-32 -65 0 -940 0 -940 32 -67 c56 -119 149 -200 274 -239 58 -18 106 -19 909
-19 803 0 851 1 909 19 125 39 218 120 274 239 l32 67 0 930 c0 875 -1 933
-18 982 -40 116 -148 220 -269 263 -56 19 -81 20 -930 20 -819 -1 -876 -2
-926 -19z m1155 -653 l23 -21 0 -462 c0 -501 0 -505 -55 -505 -33 0 -55 36
-55 87 l0 43 -36 -40 c-20 -22 -61 -52 -92 -67 -50 -24 -69 -28 -147 -28 -78
0 -97 4 -147 28 -75 37 -159 128 -189 204 -31 81 -31 197 0 275 84 216 362
305 535 173 l46 -35 0 159 c0 145 2 161 21 185 25 32 64 34 96 4z m-888 -44
c27 -34 27 -64 0 -98 -16 -20 -29 -26 -59 -26 -69 0 -102 69 -59 124 16 20 29
26 59 26 30 0 43 -6 59 -26z m1487 -233 c28 -12 66 -38 84 -56 83 -86 0 -171
-94 -96 -64 51 -181 64 -221 25 -21 -22 -19 -77 4 -99 11 -9 66 -34 121 -56
176 -66 228 -109 238 -194 7 -68 -6 -112 -45 -156 -63 -70 -102 -84 -223 -83
-114 0 -164 15 -226 67 -62 53 -68 128 -10 143 25 6 40 0 122 -51 43 -26 59
-30 121 -30 62 0 75 3 97 24 34 32 35 79 2 110 -13 12 -73 40 -132 62 -114 41
-163 73 -202 130 -20 29 -23 44 -20 100 3 53 9 73 30 101 27 35 76 64 133 79
53 14 166 4 221 -20z m-1496 -1 c20 -20 21 -29 18 -418 l-3 -397 -25 -45 c-34
-60 -90 -98 -167 -111 -81 -14 -116 0 -121 50 -4 43 18 68 70 76 22 4 54 20
72 35 l31 28 3 378 c3 371 3 379 24 401 27 29 71 30 98 3z"/>
<path d="M1105 1461 c-72 -18 -142 -77 -169 -143 -20 -48 -20 -138 0 -186 67
-161 294 -197 404 -64 116 141 45 354 -131 391 -55 12 -61 12 -104 2z"/>
</g>
</svg>
